HIERARCHY
ROOT root
{
	OFFSET 0.00 0.00 0.00
	CHANNELS 6 Xposition Yposition Zposition Zrotation Xrotation Yrotation
	JOINT lowerback
	{
		OFFSET 0 0 0
		CHANNELS 6 Xposition Yposition Zposition Zrotation Xrotation Yrotation
		JOINT upperback
		{
			OFFSET -0.214371 12.3768 -1.12219
			CHANNELS 6 Xposition Yposition Zposition Zrotation Xrotation Yrotation
			JOINT thorax
			{
				OFFSET -0.00137213 12.3873 0.296195
				CHANNELS 6 Xposition Yposition Zposition Zrotation Xrotation Yrotation
				JOINT lowerneck
				{
					OFFSET 0.0883157 12.5016 0.82912
					CHANNELS 6 Xposition Yposition Zposition Zrotation Xrotation Yrotation
					JOINT upperneck
					{
						OFFSET -1 10.1794 0.943522
						CHANNELS 6 Xposition Yposition Zposition Zrotation Xrotation Yrotation
						JOINT head
						{
							OFFSET 0.667525 10.2797 -1.57149
							CHANNELS 6 Xposition Yposition Zposition Zrotation Xrotation Yrotation
							End Site
							{
								OFFSET 0 0 0
							}
						}
					}
				}
				JOINT lclavicle
				{
					OFFSET 0.0883157 12.5016 0.82912
					CHANNELS 6 Xposition Yposition Zposition Zrotation Xrotation Yrotation
					JOINT lhumerus
					{
						OFFSET 20.61 4.45006 1.43784
						CHANNELS 6 Xposition Yposition Zposition Zrotation Xrotation Yrotation
						JOINT lradius
						{
							OFFSET 0 -30.3438 0
							CHANNELS 6 Xposition Yposition Zposition Zrotation Xrotation Yrotation
							JOINT lwrist
							{
								OFFSET 0 -18.964 0
								CHANNELS 6 Xposition Yposition Zposition Zrotation Xrotation Yrotation
								JOINT lhand
								{
									OFFSET 0 -9.48199 0
									CHANNELS 6 Xposition Yposition Zposition Zrotation Xrotation Yrotation
									JOINT lfingers
									{
										OFFSET 0 -3.17138 0
										CHANNELS 6 Xposition Yposition Zposition Zrotation Xrotation Yrotation
										End Site
										{
											OFFSET 0 -2.55685 0
										}
									}
								}
								JOINT lthumb
								{
									OFFSET 0 -9.48199 0
									CHANNELS 6 Xposition Yposition Zposition Zrotation Xrotation Yrotation
									End Site
									{
										OFFSET 0 -3.67114 0
									}
								}
							}
						}
					}
				}
				JOINT rclavicle
				{
					OFFSET 0.0883157 12.5016 0.82912
					CHANNELS 6 Xposition Yposition Zposition Zrotation Xrotation Yrotation
					JOINT rhumerus
					{
						OFFSET -20.61 4.45 1.44
						CHANNELS 6 Xposition Yposition Zposition Zrotation Xrotation Yrotation
						JOINT rradius
						{
							OFFSET 0 -29.5102 0
							CHANNELS 6 Xposition Yposition Zposition Zrotation Xrotation Yrotation
							JOINT rwrist
							{
								OFFSET 0 -19.2342 0
								CHANNELS 6 Xposition Yposition Zposition Zrotation Xrotation Yrotation
								JOINT rhand
								{
									OFFSET 0 -9.61712 0
									CHANNELS 6 Xposition Yposition Zposition Zrotation Xrotation Yrotation
									JOINT rfingers
									{
										OFFSET 0 -3.29215 0
										CHANNELS 6 Xposition Yposition Zposition Zrotation Xrotation Yrotation
										End Site
										{
											OFFSET 0 -2.557 0
										}
									}
								}
								JOINT rthumb
								{
									OFFSET 0 -9.61712 0
									CHANNELS 6 Xposition Yposition Zposition Zrotation Xrotation Yrotation
									End Site
									{
										OFFSET 0 -3.671 0
									}
								}
							}
						}
					}
				}
			}
		}
	}
	JOINT rfemur
	{
		OFFSET -8.46272 -9.62775 4.76248
		CHANNELS 6 Xposition Yposition Zposition Zrotation Xrotation Yrotation
		JOINT rtibia
		{
			OFFSET 1.00552e-005 -38.0331 0
			CHANNELS 6 Xposition Yposition Zposition Zrotation Xrotation Yrotation
			JOINT rfoot
			{
				OFFSET 1.14428e-005 -43.2815 0
				CHANNELS 6 Xposition Yposition Zposition Zrotation Xrotation Yrotation
				JOINT rtoes
				{
					OFFSET 0 -14.1868 -3.08763
					CHANNELS 6 Xposition Yposition Zposition Zrotation Xrotation Yrotation
					End Site
					{
						OFFSET 0 -7.27332 0
					}
				}
			}
		}
	}
	JOINT lfemur
	{
		OFFSET 9.10607 -9.62778 4.76249
		CHANNELS 6 Xposition Yposition Zposition Zrotation Xrotation Yrotation
		JOINT ltibia
		{
			OFFSET -1.01399e-005 -38.3535 0
			CHANNELS 6 Xposition Yposition Zposition Zrotation Xrotation Yrotation
			JOINT lfoot
			{
				OFFSET -1.12937e-005 -42.7176 0
				CHANNELS 6 Xposition Yposition Zposition Zrotation Xrotation Yrotation
				JOINT ltoes
				{
					OFFSET 0 -13.9965 -2.83857
					CHANNELS 6 Xposition Yposition Zposition Zrotation Xrotation Yrotation
					End Site
					{
						OFFSET 0 -7.16348 0
					}
				}
			}
		}
	}
}
MOTION
Frames: 4
Frame Time: 0.00833333
10.5609	95.6758	107.513	-0.534104	-0.732204	-4.00175	0 0 0 5.47143	-6.64425	6.27877	-0.214371 12.3768 -1.12219 -7.24637	-2.6431	7.88077	-0.00137213 12.3873 0.296195 -10.1263	2.67972	3.8538	0.0883157 12.5016 0.82912 1.04684	0.271238	7.49388	-1 10.1794 0.943522 7.48271	3.24751	9.68	0.667525 10.2797 -1.57149 2.3022	0.612942	4.85089	0.0883157 12.5016 0.82912 -15	0	-0	20.61 4.45006 1.43784 23.7429	12.0965	-158.295	0 -30.3438 0 -0	30.1094	-0	0 -18.964 0 1.40318e-014	-1.52677e-016	-91.2468	0 -9.48199 0 1.22245	4.37968	-2.58917e-014	0 -3.17138 0 -0	7.12502	-0	0 -9.48199 0 25	15	-1.36605e-015	0.0883157 12.5016 0.82912 15	0	-0	-20.61 4.45 1.44 -7.20875	2.39311	-151.797	0 -29.5102 0 -0	42.0801	-0	0 -19.2342 0 8.60971e-016	-3.36765e-015	118.682	0 -9.61712 0 1.22	4.38	-0	0 -3.29215 0 -0	7.12502	-0	0 -9.61712 0 25	15	-7.97034e-015	-8.46272 -9.62775 4.76248 6.41439	7.3557	-0.213408	1.00552e-005 -38.0331 0 -0	50.0745	-0	1.14428e-005 -43.2815 0 -7.86475	-43.0498	-11.4396	0 -14.1868 -3.08763 -0	-8.39021	-0	9.10607 -9.62778 4.76249 -2.7661	-15.957	11.6449	-1.01399e-005 -38.3535 0 -0	34.6138	-0	-1.12937e-005 -42.7176 0 -27.3526	-74.6998	-28.2055	0 -13.9965 -2.83857 -0	-17.7246	-0
10.5528	95.5584	107.985	0.0258265	-0.92729	-4.32618	0 0 0 4.91832	-6.33087	6.1258	-0.214371 12.3768 -1.12219 -7.35567	-2.55477	7.70589	-0.00137213 12.3873 0.296195 -9.96887	2.5099	3.75441	0.0883157 12.5016 0.82912 1.12273	0.299499	7.49873	-1 10.1794 0.943522 7.47282	3.29951	9.6796	0.667525 10.2797 -1.57149 2.28776	0.628608	4.85046	0.0883157 12.5016 0.82912 -15	0	-0	20.61 4.45006 1.43784 23.7639	11.8297	-158.86	0 -30.3438 0 -0	31.5687	-0	0 -18.964 0 -0	0	-90	0 -9.48199 0 1.22245	4.37968	-2.58917e-014	0 -3.17138 0 -0	7.12502	-0	0 -9.48199 0 25	15	-1.36605e-015	0.0883157 12.5016 0.82912 15	0	-0	-20.61 4.45 1.44 -7.26266	2.52545	-152.344	0 -29.5102 0 -0	42.0471	-0	0 -19.2342 0 8.55631e-016	-3.35787e-015	118.591	0 -9.61712 0 1.22	4.38	-0	0 -3.29215 0 -0	7.12502	-0	0 -9.61712 0 25	15	-7.97034e-015	-8.46272 -9.62775 4.76248 5.30703	6.03666	-0.352982	1.00552e-005 -38.0331 0 -0	52.5298	-0	1.14428e-005 -43.2815 0 -7.46446	-42.022	-11.0742	0 -14.1868 -3.08763 -0	-7.77031	-0	9.10607 -9.62778 4.76249 -3.35592	-15.3944	11.8311	-1.01399e-005 -38.3535 0 -0	34.5395	-0	-1.12937e-005 -42.7176 0 -27.6992	-75.0529	-28.5191	0 -13.9965 -2.83857 -0	-17.7468	-0
10.5529	95.4365	108.452	0.595459	-1.13305	-4.65063	0 0 0 4.37261	-6.01409	5.96945	-0.214371 12.3768 -1.12219 -7.47031	-2.46422	7.52111	-0.00137213 12.3873 0.296195 -9.82113	2.34184	3.6501	0.0883157 12.5016 0.82912 1.20104	0.34217	7.49546	-1 10.1794 0.943522 7.46159	3.3574	9.66792	0.667525 10.2797 -1.57149 2.27223	0.644294	4.84412	0.0883157 12.5016 0.82912 -15	0	-0	20.61 4.45006 1.43784 23.8035	11.557	-159.415	0 -30.3438 0 -0	33.0525	-0	0 -18.964 0 -0	0	-88.7773	0 -9.48199 0 1.22245	4.37968	-2.58917e-014	0 -3.17138 0 -0	7.12502	-0	0 -9.48199 0 25	15	-1.36605e-015	0.0883157 12.5016 0.82912 15	0	-0	-20.61 4.45 1.44 -7.28031	2.65015	-152.97	0 -29.5102 0 -0	41.9703	-0	0 -19.2342 0 8.47969e-016	-3.34378e-015	118.46	0 -9.61712 0 1.22	4.38	-0	0 -3.29215 0 -0	7.12502	-0	0 -9.61712 0 25	15	-7.97034e-015	-8.46272 -9.62775 4.76248 4.17718	4.68177	-0.471755	1.00552e-005 -38.0331 0 -0	54.9817	-0	1.14428e-005 -43.2815 0 -7.062	-41.2626	-10.6385	0 -14.1868 -3.08763 -0	-7.42029	-0	9.10607 -9.62778 4.76249 -3.95937	-14.8168	12.0506	-1.01399e-005 -38.3535 0 -0	34.4404	-0	-1.12937e-005 -42.7176 0 -28.1363	-75.3761	-28.9285	0 -13.9965 -2.83857 -0	-17.783	-0
10.5535	95.3117	108.916	1.1658	-1.34801	-4.97597	0 0 0 3.84211	-5.6963	5.81079	-0.214371 12.3768 -1.12219 -7.58766	-2.37231	7.32771	-0.00137213 12.3873 0.296195 -9.68429	2.17682	3.54163	0.0883157 12.5016 0.82912 1.28107	0.398629	7.48499	-1 10.1794 0.943522 7.44963	3.42312	9.64606	0.667525 10.2797 -1.57149 2.25568	0.660648	4.83244	0.0883157 12.5016 0.82912 -15	0	-0	20.61 4.45006 1.43784 23.8623	11.2772	-159.965	0 -30.3438 0 -0	34.5586	-0	0 -18.964 0 -0	0	-87.5772	0 -9.48199 0 1.22245	4.37968	-2.58917e-014	0 -3.17138 0 -0	7.12502	-0	0 -9.48199 0 25	15	-1.36605e-015	0.0883157 12.5016 0.82912 15	0	-0	-20.61 4.45 1.44 -7.26145	2.769	-153.673	0 -29.5102 0 -0	41.8481	-0	0 -19.2342 0 8.37901e-016	-3.32514e-015	118.287	0 -9.61712 0 1.22	4.38	-0	0 -3.29215 0 -0	7.12502	-0	0 -9.61712 0 25	15	-7.97034e-015	-8.46272 -9.62775 4.76248 3.04164	3.28978	-0.568501	1.00552e-005 -38.0331 0 -0	57.4259	-0	1.14428e-005 -43.2815 0 -6.65603	-40.8147	-10.1228	0 -14.1868 -3.08763 -0	-7.36576	-0	9.10607 -9.62778 4.76249 -4.56699	-14.2253	12.2986	-1.01399e-005 -38.3535 0 -0	34.3177	-0	-1.12937e-005 -42.7176 0 -28.6541	-75.6708	-29.4229	0 -13.9965 -2.83857 -0	-17.8336	-0
